<?xml version="1.0" encoding="UTF-8"?>
<svg width="14px" height="14px" viewBox="0 0 14 14" version="1.1" xmlns="http://www.w3.org/2000/svg" xmlns:xlink="http://www.w3.org/1999/xlink">
    <title>Mask Copy</title>
    <defs>
        <path d="M677.618718,155.256282 C677.960427,155.59799 677.960427,156.15201 677.618718,156.493718 L672.987,161.125 L683.125,161.125 C683.608249,161.125 684,161.516751 684,162 C684,162.483249 683.608249,162.875 683.125,162.875 L672.986,162.874 L677.618718,167.506282 C677.960427,167.84799 677.960427,168.40201 677.618718,168.743718 C677.27701,169.085427 676.72299,169.085427 676.381282,168.743718 L670.256282,162.618718 L670.24783,162.610151 C670.230118,162.591948 670.213192,162.572976 670.197105,162.553291 L670.256282,162.618718 C670.221935,162.584371 670.19104,162.547879 670.163598,162.509673 C670.155659,162.498516 670.147526,162.486595 670.139684,162.474468 C670.127522,162.455769 670.116538,162.437267 670.106293,162.418468 C670.038579,162.294287 670,162.151649 670,162 C670,161.848351 670.038579,161.705713 670.106457,161.581363 C670.116538,161.562733 670.127522,161.544231 670.139247,161.526068 C670.147526,161.513405 670.155659,161.501484 670.164074,161.489779 C670.174168,161.47561 670.185251,161.461148 670.196846,161.446964 C670.213192,161.427024 670.230118,161.408052 670.24783,161.389849 C670.250547,161.387056 670.253402,161.384161 670.256282,161.381282 L676.381282,155.256282 C676.72299,154.914573 677.27701,154.914573 677.618718,155.256282 Z" id="path-1"></path>
    </defs>
    <g id="Popup" stroke="none" stroke-width="1" fill="none" fill-rule="evenodd">
        <g id="Home" transform="translate(-670.000000, -155.000000)">
            <mask id="mask-2" fill="white">
                <use xlink:href="#path-1"></use>
            </mask>
            <use id="Mask-Copy" fill="#0F62FE" transform="translate(677.000000, 162.000000) scale(-1, 1) translate(-677.000000, -162.000000) " xlink:href="#path-1"></use>
        </g>
    </g>
</svg>