<?xml version="1.0" encoding="UTF-8"?>
<svg width="96px" height="18px" viewBox="0 0 96 18" version="1.1" xmlns="http://www.w3.org/2000/svg" xmlns:xlink="http://www.w3.org/1999/xlink">
    <title>Group 4 Copy</title>
    <g id="Brand" stroke="none" stroke-width="1" fill="none" fill-rule="evenodd">
        <g id="Landing" transform="translate(-673.000000, -2274.000000)" fill="#FFFFFF">
            <g id="Group-4-Copy" transform="translate(673.000000, 2274.000000)">
                <path d="M17.9652672,-3.01980663e-14 L17.9652672,17.9652672 L13.061,17.965 L13.0619469,12.3451327 C13.0619469,11.8984927 12.7277254,11.5299142 12.2957376,11.4758527 L12.1858407,11.4690265 C11.7019806,11.4690265 11.3097345,11.8612727 11.3097345,12.3451327 L11.3097345,12.3451327 L11.309,17.965 L10.035,17.965 L10.0353982,9.47787611 C10.0353982,9.03123602 9.7011767,8.66265756 9.26918893,8.60859602 L9.15929204,8.60176991 C8.67543194,8.60176991 8.28318584,8.99401602 8.28318584,9.47787611 L8.28318584,9.47787611 L8.283,17.965 L7.008,17.965 L7.00884956,14.4159292 C7.00884956,13.9692891 6.67462803,13.6007107 6.24264026,13.5466491 L6.13274336,13.539823 C5.64888327,13.539823 5.25663717,13.9320691 5.25663717,14.4159292 L5.25663717,14.4159292 L5.256,17.965 L3.982,17.965 L3.98230088,11.0707965 C3.98230088,10.6241564 3.64807935,10.2555779 3.21609159,10.2015164 L3.10619469,10.1946903 C2.6223346,10.1946903 2.2300885,10.5869364 2.2300885,11.0707965 L2.2300885,11.0707965 L2.23,17.965 L-3.01980663e-14,17.9652672 L-3.01980663e-14,-3.01980663e-14 L17.9652672,-3.01980663e-14 Z" id="Combined-Shape"></path>
                <path d="M32.0615344,17.2466565 C33.2419722,17.2466565 34.3189301,17.0205336 35.292408,16.568288 C36.265886,16.1160423 37.0592322,15.5066605 37.6724466,14.7401424 C38.2090092,14.1422583 38.6037661,13.4370617 38.856717,12.6245525 C39.109668,11.8120434 39.2361435,10.9842039 39.2361435,10.141034 C39.2361435,9.91107858 39.2246457,9.68112316 39.2016501,9.45116774 C39.1786546,9.22121232 39.1518265,8.9912569 39.1211657,8.76130148 L39.1211657,8.76130148 L31.9925477,8.76130148 L31.9925477,11.2218245 L36.5686606,11.2218245 L36.5686606,11.2218245 L36.5686606,11.3597977 C36.5686606,12.0343336 36.3578681,12.6322177 35.9362832,13.15345 C35.5146983,13.6746823 34.9666378,14.0847694 34.2921019,14.3837115 C33.617566,14.6826535 32.8970391,14.8321246 32.130521,14.8321246 C31.0727261,14.8321246 30.0954155,14.5715084 29.1985894,14.0502761 C28.3017633,13.5290438 27.5850689,12.8238472 27.0485062,11.9346863 C26.5119436,11.0455253 26.2436623,10.056717 26.2436623,8.96826136 C26.2436623,7.86447535 26.4966132,6.87949963 27.0025151,6.01333422 C27.5084171,5.14716881 28.2021159,4.46113514 29.0836117,3.95523322 C29.9651075,3.44933129 30.9500832,3.19638033 32.0385388,3.19638033 C32.8970391,3.19638033 33.6942178,3.38417726 34.4300752,3.75977111 C35.1659325,4.13536496 35.8404684,4.61443875 36.4536829,5.19699248 L36.4536829,5.19699248 L38.0633708,3.51831792 C37.7261029,3.04307672 37.2585268,2.59849624 36.6606428,2.18457649 C36.0627587,1.77065673 35.3728924,1.43338878 34.591044,1.17277264 C33.8091956,0.912156497 32.9583605,0.781848426 32.0385388,0.781848426 C30.8734314,0.781848426 29.7849757,0.988808304 28.7731719,1.40272806 C27.761368,1.81664781 26.8760397,2.39536895 26.1171868,3.13889148 C25.3583339,3.882414 24.768115,4.74857941 24.34653,5.73738772 C23.9249451,6.72619602 23.7141526,7.8031539 23.7141526,8.96826136 C23.7141526,10.1333688 23.9249451,11.2179919 24.34653,12.2221305 C24.768115,13.2262692 25.3621665,14.1039324 26.1286845,14.8551201 C26.8952026,15.6063078 27.7843636,16.1926941 28.7961674,16.6142791 C29.8079713,17.035864 30.8964269,17.2466565 32.0615344,17.2466565 Z M43.5305609,17.016701 L43.5305609,-1.03028697e-13 L41.1620201,-1.03028697e-13 L41.1620201,17.016701 L43.5305609,17.016701 Z M50.6764256,17.2466565 C51.626908,17.2466565 52.4624127,17.0243662 53.1829397,16.5797857 C53.9034666,16.1352053 54.4476945,15.6599641 54.8156231,15.1540621 L54.8156231,15.1540621 L54.8156231,17.016701 L57.2071595,17.016701 L57.2071595,4.94404152 L54.8156231,4.94404152 L54.8156231,6.53073391 C54.4323641,6.04016235 53.9226296,5.61091224 53.2864196,5.24298357 C52.6502096,4.87505489 51.9105197,4.69109056 51.0673498,4.69109056 C49.9329031,4.69109056 48.9210992,4.95553929 48.0319383,5.48443676 C47.1427773,6.01333422 46.4452459,6.74919156 45.9393439,7.69200878 C45.433442,8.634826 45.1804911,9.71944907 45.1804911,10.945878 C45.1804911,12.1723069 45.4257768,13.2607625 45.9163484,14.2112449 C46.40692,15.1617273 47.0699581,15.9052499 47.9054628,16.4418125 C48.7409675,16.9783751 49.6646217,17.2466565 50.6764256,17.2466565 Z M51.2283186,15.06208 C50.523122,15.06208 49.8945772,14.8819482 49.3426841,14.5216847 C48.7907911,14.1614213 48.361541,13.6708497 48.0549338,13.0499701 C47.7483266,12.4290904 47.595023,11.7277264 47.595023,10.945878 C47.595023,10.1640295 47.7483266,9.4664981 48.0549338,8.85328365 C48.361541,8.2400692 48.7907911,7.75716282 49.3426841,7.40456451 C49.8945772,7.0519662 50.523122,6.87566704 51.2283186,6.87566704 C51.9641759,6.87566704 52.6080511,7.05579879 53.1599441,7.41606228 C53.7118371,7.77632577 54.1410872,8.26306474 54.4476945,8.87627919 C54.7543017,9.48949365 54.9076053,10.1793599 54.9076053,10.945878 C54.9076053,11.7277264 54.7543017,12.4290904 54.4476945,13.0499701 C54.1410872,13.6708497 53.7118371,14.1614213 53.1599441,14.5216847 C52.6080511,14.8819482 51.9641759,15.06208 51.2283186,15.06208 Z M62.1684477,17.016701 L62.1684477,9.7041187 C62.1684477,9.18288642 62.3064209,8.70764522 62.5823674,8.2783951 C62.8583139,7.84914499 63.2339078,7.50421186 63.709149,7.24359571 C64.1843902,6.98297957 64.728618,6.8526715 65.3418325,6.8526715 C66.001038,6.80668042 66.5146051,6.91399295 66.8825338,7.17460909 C67.2504624,7.43522523 67.5110786,7.79548872 67.6643822,8.25539956 C67.8176858,8.7153104 67.8943376,9.23654268 67.8943376,9.81909641 L67.8943376,9.81909641 L67.8943376,17.016701 L70.2628784,17.016701 L70.2628784,9.65812762 C70.2628784,8.73830594 70.1440681,7.90280125 69.9064475,7.15161355 C69.6688269,6.40042584 69.2510746,5.80254175 68.6531905,5.35796127 C68.0553064,4.9133808 67.2121365,4.69109056 66.1236809,4.69109056 C65.2651807,4.69109056 64.4833322,4.90954821 63.7781356,5.3464635 C63.072939,5.7833788 62.5363763,6.28544813 62.1684477,6.8526715 L62.1684477,6.8526715 L62.1684477,4.94404152 L59.7999068,4.94404152 L59.7999068,17.016701 L62.1684477,17.016701 Z M77.8916495,17.2466565 C78.5968461,17.2466565 79.271382,17.1355113 79.9152572,16.9132211 C80.5591323,16.6909309 81.1340209,16.399654 81.6399228,16.0393905 C82.1458247,15.679127 82.5444141,15.2920354 82.835691,14.8781156 L82.835691,14.8781156 L81.5249451,13.2684277 C81.1723468,13.6976778 80.712436,14.1115976 80.1452126,14.510187 C79.5779892,14.9087764 78.9111185,15.1080711 78.1446004,15.1080711 C77.4700645,15.1080711 76.8376871,14.9279393 76.2474682,14.5676758 C75.6572493,14.2074123 75.1820081,13.7168408 74.8217446,13.0959611 C74.4614811,12.4750815 74.2813494,11.7660523 74.2813494,10.9688735 C74.2813494,10.1716947 74.4499834,9.46266551 74.7872513,8.84178588 C75.1245193,8.22090625 75.5844301,7.73033469 76.1669838,7.3700712 C76.7495376,7.00980771 77.4010779,6.82967596 78.1216049,6.82967596 C78.7348193,6.82967596 79.3671968,7.01747289 80.0187371,7.39306674 C80.6702775,7.76866059 81.1723468,8.21707366 81.5249451,8.73830594 L81.5249451,8.73830594 L82.835691,7.12861801 C82.4064409,6.40809102 81.7549005,5.8217047 80.8810699,5.36945905 C80.0072393,4.91721339 79.0107659,4.69109056 77.8916495,4.69109056 C76.7878635,4.69109056 75.79139,4.96703706 74.902229,5.51893007 C74.0130681,6.07082308 73.311704,6.81817819 72.7981369,7.76099541 C72.2845698,8.70381263 72.0277863,9.77310533 72.0277863,10.9688735 C72.0277863,12.1493113 72.2845698,13.2147714 72.7981369,14.1652538 C73.311704,15.1157362 74.0130681,15.8669239 74.902229,16.418817 C75.79139,16.97071 76.7878635,17.2466565 77.8916495,17.2466565 Z M89.9815557,17.2466565 C90.9167077,17.2466565 91.8135338,17.0626921 92.6720341,16.6947635 C93.5305343,16.3268348 94.2050702,15.9052499 94.6956418,15.4300086 L94.6956418,15.4300086 L94.7186373,15.4300086 L93.5458647,13.705343 C93.2085967,13.9966199 92.7793466,14.2993945 92.2581143,14.6136669 C91.736882,14.9279393 91.054681,15.0850755 90.2115111,15.0850755 C89.0464036,15.0850755 88.0844234,14.7669705 87.3255706,14.1307605 C86.5667177,13.4945505 86.1183046,12.6322177 85.9803314,11.5437621 L85.9803314,11.5437621 L95.2245392,11.5437621 L95.2475348,10.5319582 C95.2475348,9.36685076 95.002249,8.34738173 94.5116774,7.47355113 C94.0211059,6.59972054 93.3619003,5.91368687 92.5340608,5.41545013 C91.7062213,4.91721339 90.7863996,4.66809502 89.7745958,4.66809502 C88.6708098,4.66809502 87.6513407,4.92487857 86.7161887,5.43844567 C85.7810367,5.95201278 85.029849,6.68787012 84.4626256,7.6460177 C83.8954022,8.60416528 83.6117905,9.75777497 83.6117905,11.1068468 C83.6117905,12.2872846 83.8800719,13.3412469 84.4166345,14.2687338 C84.9531972,15.1962206 85.7005523,15.9244128 86.6586998,16.4533103 C87.6168474,16.9822077 88.724466,17.2466565 89.9815557,17.2466565 Z M92.8330029,9.65812762 L86.0723135,9.65812762 C86.2869386,8.63099341 86.7315191,7.90663384 87.406055,7.48504891 C88.0805909,7.06346397 88.8701045,6.8526715 89.7745958,6.8526715 C90.2804977,6.8526715 90.7557389,6.96381662 91.2003194,7.18610686 C91.6448999,7.4083971 92.0166611,7.71883692 92.3156032,8.11742631 C92.6145452,8.5160157 92.7870118,8.97592654 92.8330029,9.49715883 L92.8330029,9.49715883 L92.8330029,9.65812762 Z" id="Glance"></path>
            </g>
        </g>
    </g>
</svg>