<?xml version="1.0" encoding="UTF-8"?>
<svg width="633px" height="128px" viewBox="0 0 633 128" version="1.1" xmlns="http://www.w3.org/2000/svg" xmlns:xlink="http://www.w3.org/1999/xlink">
    <title>Group 2</title>
    <g id="Brand" stroke="none" stroke-width="1" fill="none" fill-rule="evenodd">
        <g id="Logo" transform="translate(-122.000000, -267.000000)">
            <g id="Group-2" transform="translate(122.000000, 267.000000)">
                <path d="M229.328297,119 C236.869672,119 243.749953,117.557778 249.969139,114.673333 C256.188325,111.788889 261.256717,107.902222 265.174315,103.013333 C268.602213,99.2 271.124166,94.7022222 272.740175,89.52 C274.356184,84.3377778 275.164189,79.0577778 275.164189,73.68 C275.164189,72.2133333 275.090734,70.7466667 274.943824,69.28 C274.796914,67.8133333 274.625519,66.3466667 274.429639,64.88 L274.429639,64.88 L228.887567,64.88 L228.887567,80.5733333 L258.122639,80.5733333 L258.122639,80.5733333 L258.122639,81.4533333 C258.122639,85.7555556 256.775965,89.5688889 254.082617,92.8933333 C251.389268,96.2177778 247.887916,98.8333333 243.578558,100.74 C239.269201,102.646667 234.666024,103.6 229.769027,103.6 C223.011171,103.6 216.7675,101.937778 211.038013,98.6133333 C205.308527,95.2888889 200.729835,90.7911111 197.301937,85.12 C193.874039,79.4488889 192.16009,73.1422222 192.16009,66.2 C192.16009,59.16 193.776099,52.8777778 197.008117,47.3533333 C200.240135,41.8288889 204.671917,37.4533333 210.303464,34.2266667 C215.93501,31 222.227651,29.3866667 229.181387,29.3866667 C234.666024,29.3866667 239.758901,30.5844444 244.460018,32.98 C249.161135,35.3755556 253.470492,38.4311111 257.38809,42.1466667 L257.38809,42.1466667 L267.671783,31.44 C265.517105,28.4088889 262.529937,25.5733333 258.710279,22.9333333 C254.890621,20.2933333 250.483324,18.1422222 245.488387,16.48 C240.49345,14.8177778 235.057783,13.9866667 229.181387,13.9866667 C221.737952,13.9866667 214.784216,15.3066667 208.32018,17.9466667 C201.856144,20.5866667 196.200113,24.2777778 191.352086,29.02 C186.504059,33.7622222 182.733371,39.2866667 180.040023,45.5933333 C177.346674,51.9 176,58.7688889 176,66.2 C176,73.6311111 177.346674,80.5488889 180.040023,86.9533333 C182.733371,93.3577778 186.528543,98.9555556 191.42554,103.746667 C196.322537,108.537778 202.003054,112.277778 208.46709,114.966667 C214.931126,117.655556 221.884862,119 229.328297,119 Z M302.599614,117.533333 L302.599614,9 L287.467894,9 L287.467894,117.533333 L302.599614,117.533333 Z M348.251869,119 C354.324145,119 359.661871,117.582222 364.265049,114.746667 C368.868226,111.911111 372.345094,108.88 374.695652,105.653333 L374.695652,105.653333 L374.695652,117.533333 L389.974283,117.533333 L389.974283,40.5333333 L374.695652,40.5333333 L374.695652,50.6533333 C372.247154,47.5244444 368.990651,44.7866667 364.926143,42.44 C360.861636,40.0933333 356.136034,38.92 350.749337,38.92 C343.501781,38.92 337.037745,40.6066667 331.357229,43.98 C325.676712,47.3533333 321.220445,52.0466667 317.988427,58.06 C314.756409,64.0733333 313.1404,70.9911111 313.1404,78.8133333 C313.1404,86.6355556 314.707439,93.5777778 317.841517,99.64 C320.975595,105.702222 325.211498,110.444444 330.549224,113.866667 C335.886951,117.288889 341.787833,119 348.251869,119 Z M351.777706,105.066667 C347.272469,105.066667 343.256932,103.917778 339.731094,101.62 C336.205256,99.3222222 333.462938,96.1933333 331.504139,92.2333333 C329.54534,88.2733333 328.565941,83.8 328.565941,78.8133333 C328.565941,73.8266667 329.54534,69.3777778 331.504139,65.4666667 C333.462938,61.5555556 336.205256,58.4755556 339.731094,56.2266667 C343.256932,53.9777778 347.272469,52.8533333 351.777706,52.8533333 C356.478823,52.8533333 360.592301,54.0022222 364.118139,56.3 C367.643977,58.5977778 370.386295,61.7022222 372.345094,65.6133333 C374.303892,69.5244444 375.283292,73.9244444 375.283292,78.8133333 C375.283292,83.8 374.303892,88.2733333 372.345094,92.2333333 C370.386295,96.1933333 367.643977,99.3222222 364.118139,101.62 C360.592301,103.917778 356.478823,105.066667 351.777706,105.066667 Z M421.670096,117.533333 L421.670096,70.8933333 C421.670096,67.5688889 422.551555,64.5377778 424.314474,61.8 C426.077393,59.0622222 428.476921,56.8622222 431.51306,55.2 C434.549198,53.5377778 438.026066,52.7066667 441.943663,52.7066667 C446.155081,52.4133333 449.436068,53.0977778 451.786627,54.76 C454.137186,56.4222222 455.802165,58.72 456.781564,61.6533333 C457.760963,64.5866667 458.250663,67.9111111 458.250663,71.6266667 L458.250663,71.6266667 L458.250663,117.533333 L473.382384,117.533333 L473.382384,70.6 C473.382384,64.7333333 472.623349,59.4044444 471.10528,54.6133333 C469.587211,49.8222222 466.918348,46.0088889 463.09869,43.1733333 C459.279032,40.3377778 453.892336,38.92 446.9386,38.92 C441.453963,38.92 436.459026,40.3133333 431.953789,43.1 C427.448552,45.8866667 424.020654,49.0888889 421.670096,52.7066667 L421.670096,52.7066667 L421.670096,40.5333333 L406.538375,40.5333333 L406.538375,117.533333 L421.670096,117.533333 Z M522.119746,119 C526.624983,119 530.934341,118.291111 535.047818,116.873333 C539.161296,115.455556 542.834043,113.597778 546.066061,111.3 C549.298079,109.002222 551.844518,106.533333 553.705377,103.893333 L553.705377,103.893333 L545.331512,93.6266667 C543.078893,96.3644444 540.140695,99.0044444 536.516917,101.546667 C532.893139,104.088889 528.632752,105.36 523.735755,105.36 C519.426398,105.36 515.386375,104.211111 511.615688,101.913333 C507.845,99.6155556 504.808862,96.4866667 502.507273,92.5266667 C500.205685,88.5666667 499.05489,84.0444444 499.05489,78.96 C499.05489,73.8755556 500.13223,69.3533333 502.286908,65.3933333 C504.441587,61.4333333 507.379785,58.3044444 511.101503,56.0066667 C514.823221,53.7088889 518.985668,52.56 523.588845,52.56 C527.506443,52.56 531.546465,53.7577778 535.708913,56.1533333 C539.87136,58.5488889 543.078893,61.4088889 545.331512,64.7333333 L545.331512,64.7333333 L553.705377,54.4666667 C550.963058,49.8711111 546.800611,46.1311111 541.218034,43.2466667 C535.635458,40.3622222 529.269362,38.92 522.119746,38.92 C515.06807,38.92 508.701974,40.68 503.021458,44.2 C497.340941,47.72 492.860189,52.4866667 489.579201,58.5 C486.298213,64.5133333 484.657719,71.3333333 484.657719,78.96 C484.657719,86.4888889 486.298213,93.2844444 489.579201,99.3466667 C492.860189,105.408889 497.340941,110.2 503.021458,113.72 C508.701974,117.24 515.06807,119 522.119746,119 Z M599.357631,119 C605.331967,119 611.061454,117.826667 616.54609,115.48 C622.030727,113.133333 626.340084,110.444444 629.474162,107.413333 L629.474162,107.413333 L629.621072,107.413333 L622.128667,96.4133333 C619.973988,98.2711111 617.23167,100.202222 613.901712,102.206667 C610.571754,104.211111 606.213427,105.213333 600.82673,105.213333 C593.383294,105.213333 587.237563,103.184444 582.389536,99.1266667 C577.541509,95.0688889 574.676766,89.5688889 573.795307,82.6266667 L573.795307,82.6266667 L632.85309,82.6266667 L633,76.1733333 C633,68.7422222 631.432961,62.24 628.298883,56.6666667 C625.164805,51.0933333 620.953387,46.7177778 615.664631,43.54 C610.375874,40.3622222 604.499478,38.7733333 598.035442,38.7733333 C590.983766,38.7733333 584.47076,40.4111111 578.496424,43.6866667 C572.522087,46.9622222 567.72303,51.6555556 564.099253,57.7666667 C560.475475,63.8777778 558.663586,71.2355556 558.663586,79.84 C558.663586,87.3688889 560.377535,94.0911111 563.805433,100.006667 C567.233331,105.922222 572.007903,110.566667 578.129149,113.94 C584.250395,117.313333 591.326556,119 599.357631,119 Z M617.57446,70.6 L574.382946,70.6 C575.754105,64.0488889 578.594364,59.4288889 582.903721,56.74 C587.213078,54.0511111 592.256985,52.7066667 598.035442,52.7066667 C601.26746,52.7066667 604.303598,53.4155556 607.143856,54.8333333 C609.984114,56.2511111 612.359158,58.2311111 614.268987,60.7733333 C616.178815,63.3155556 617.28064,66.2488889 617.57446,69.5733333 L617.57446,69.5733333 L617.57446,70.6 Z" id="Glance-Copy" fill="#0F62FE"></path>
                <g id="Group-Copy-8">
                    <rect id="Rectangle-Copy-3" fill="#0F62FE" x="0" y="0" width="128" height="128"></rect>
                    <path d="M22,72 C25.3137085,72 28,74.6862915 28,78 L28,128 L28,128 L16,128 L16,78 C16,74.6862915 18.6862915,72 22,72 Z" id="Rectangle-Copy-16" fill="#FFFFFF"></path>
                    <path d="M43,96 C46.3137085,96 49,98.6862915 49,102 L49,128 L49,128 L37,128 L37,102 C37,98.6862915 39.6862915,96 43,96 Z" id="Rectangle-Copy-17" fill="#FFFFFF"></path>
                    <path d="M65,61 C68.3137085,61 71,63.6862915 71,67 L71,128 L71,128 L59,128 L59,67 C59,63.6862915 61.6862915,61 65,61 Z" id="Rectangle-Copy-18" fill="#FFFFFF"></path>
                    <path d="M87,82 C90.3137085,82 93,84.6862915 93,88 L93,128 L93,128 L81,128 L81,88 C81,84.6862915 83.6862915,82 87,82 Z" id="Rectangle-Copy-19" fill="#FFFFFF"></path>
                </g>
            </g>
        </g>
    </g>
</svg>