<?xml version="1.0" encoding="UTF-8"?>
<svg width="257px" height="232px" viewBox="0 0 257 232" version="1.1" xmlns="http://www.w3.org/2000/svg" xmlns:xlink="http://www.w3.org/1999/xlink">
    <title>Group 2</title>
    <defs>
        <polygon id="path-1" points="6.67913068e-05 0.106841716 149.811409 0.106841716 149.811409 184.969699 6.67913068e-05 184.969699"></polygon>
    </defs>
    <g id="Brand" stroke="none" stroke-width="1" fill="none" fill-rule="evenodd">
        <g id="Landing" transform="translate(-220.000000, -1533.000000)">
            <g id="Group" transform="translate(0.000000, 1447.000000)">
                <g id="Group-2" transform="translate(220.000000, 86.000000)">
                    <g id="3.通用组件/彩色版/护盾">
                        <g id="分组">
                            <g transform="translate(0.000000, 0.115745)">
                                <mask id="mask-2" fill="white">
                                    <use xlink:href="#path-1"></use>
                                </mask>
                                <g id="Clip-2"></g>
                                <path d="M116.140576,0.106819457 L33.671123,0.106819457 C30.9885615,0.106819457 28.7486037,2.0987497 28.3730139,4.75421152 C25.9215503,22.0846056 10.119395,30.9940918 3.21740404,33.999015 C1.26732052,34.8479615 6.67913068e-05,36.76488 6.67913068e-05,38.8916979 L6.67913068e-05,109.41324 C6.67913068e-05,155.563297 74.9058494,184.969699 74.9058494,184.969699 C74.9058494,184.969699 149.811409,155.563297 149.811409,109.41324 L149.811409,38.8914753 C149.811409,36.76488 148.544156,34.8479615 146.594072,33.999015 C139.692081,30.9940918 123.889926,22.0846056 121.438462,4.75421152 C121.062872,2.0987497 118.822915,0.329406366 116.140576,0.329406366 L116.140576,0.106819457 Z" id="Fill-1" fill="#E4EBF7" mask="url(#mask-2)"></path>
                            </g>
                            <path d="M109.207482,13.9612074 C110.223823,17.1019086 111.584585,20.131539 113.280416,23.0240559 C115.773513,27.2754659 118.999978,31.2381806 122.870535,34.8015744 C127.211079,38.7978998 131.798529,41.7872419 135.785302,43.9485608 L135.785302,109.147828 C135.785302,126.796744 118.882871,142.428354 104.703522,152.433859 C93.1764555,160.567629 81.4365475,166.413652 74.8965654,169.404552 C68.4623362,166.467295 56.9844728,160.755938 45.5228619,152.725447 C35.8249868,145.930982 28.2007591,138.921275 22.8619073,131.891535 C19.9553723,128.064376 17.737233,124.22631 16.2691601,120.484179 C14.7598992,116.637209 14.0260854,112.929134 14.0260854,109.147828 L14.0260854,43.9485608 C18.0126358,41.7872419 22.6007533,38.7976772 26.9410751,34.8015744 C30.8114087,31.2381806 34.0378741,27.2756884 36.5309709,23.0240559 C38.2268022,20.1317616 39.5875637,17.1019086 40.6041274,13.9612074 L109.207482,13.9612074" id="Fill-3" fill="#0F62FE"></path>
                            <path d="M78.4979527,50.6559947 L53.8768959,88.015204 C52.5522017,90.0407448 53.9766376,92.5314923 56.3648721,92.5314923 L67.3934527,92.5314923 L53.8337042,118.050414 C52.8220385,120.112904 55.4286806,122.026929 57.0272192,120.395367 L93.9067072,83.4799957 C95.7886635,81.5592933 94.4539506,78.2779171 91.7909812,78.2779171 L75.1131919,78.2779171 L82.0902118,52.2777629 C82.6350062,50.0648039 79.7396031,48.757551 78.4979527,50.6559947" id="Fill-5" fill="#FFFFFF"></path>
                        </g>
                    </g>
                    <g id="3.通用组件/彩色版/网页模块" transform="translate(157.000000, 131.000000)">
                        <g id="分组-copy" transform="translate(0.000000, 0.875101)" fill="#E4EBF7">
                            <path d="M14.7144055,17.4181755 L2.74380359,17.4181755 C1.23469904,17.4181755 4.43854279e-05,16.2009107 4.43854279e-05,14.7133857 L4.43854279e-05,2.77074322 C4.43854279e-05,1.28307236 1.23469904,0.0658075581 2.74380359,0.0658075581 L14.7144055,0.0658075581 C16.2235101,0.0658075581 17.4583127,1.28307236 17.4583127,2.77074322 L17.4583127,14.7133857 C17.4583127,16.2009107 16.2235101,17.4181755 14.7144055,17.4181755" id="Fill-3"></path>
                        </g>
                        <path d="M85.234077,97.5737064 C83.7249725,97.5737064 82.4903178,96.3459443 82.4903178,94.8455912 L82.4903178,82.7999586 C82.4903178,81.2994585 83.7249725,80.0716963 85.234077,80.0716963 L97.204679,80.0716963 C98.7137835,80.0716963 99.9485861,81.2994585 99.9485861,82.7999586 L99.9485861,94.8455912 C99.9485861,96.3459443 98.7137835,97.5737064 97.204679,97.5737064 L85.234077,97.5737064 Z" id="Fill-5-Copy" fill="#9BB7FD"></path>
                        <rect id="矩形-copy-13" fill="#4589FF" fill-rule="nonzero" x="29.2425994" y="0" width="68.0872464" height="68.2578395" rx="6.99640103"></rect>
                        <path d="M46.8464221,23.8825973 C46.5247437,23.8825973 46.264411,23.4721041 46.264411,22.9648807 L46.264411,19.2940144 C46.264411,18.7876039 46.5247437,18.3771106 46.8464221,18.3771106 L63.1406683,18.3771106 C63.4623467,18.3771106 63.7226794,18.7876039 63.7226794,19.2940144 L63.7226794,22.9648807 C63.7226794,23.4721041 63.4623467,23.8825973 63.1406683,23.8825973 L46.8464221,23.8825973 Z" id="Fill-23-Copy-3" fill="#FFFFFF"></path>
                        <path d="M88.4550543,37.0091049 L47.7194386,37.0091049 C46.9152427,37.0091049 46.264411,36.5986117 46.264411,36.0913883 L46.264411,32.420522 C46.264411,31.9141115 46.9152427,31.5036182 47.7194386,31.5036182 L88.4550543,31.5036182 C89.2592502,31.5036182 89.9100818,31.9141115 89.9100818,32.420522 L89.9100818,36.0913883 C89.9100818,36.5986117 89.2592502,37.0091049 88.4550543,37.0091049" id="Fill-23-Copy-4" fill="#FFFFFF"></path>
                        <path d="M47.4284331,50.1356125 C46.7850763,50.1356125 46.264411,49.7251192 46.264411,49.2178959 L46.264411,45.5470295 C46.264411,45.0406191 46.7850763,44.6301258 47.4284331,44.6301258 L80.0169257,44.6301258 C80.6602824,44.6301258 81.1809477,45.0406191 81.1809477,45.5470295 L81.1809477,49.2178959 C81.1809477,49.7251192 80.6602824,50.1356125 80.0169257,50.1356125 L47.4284331,50.1356125 Z" id="Fill-23-Copy-5" fill="#FFFFFF"></path>
                        <g id="分组-2-copy" transform="translate(0.000000, 31.066068)" fill-rule="nonzero">
                            <rect id="矩形" fill="#D0E2FF" x="0" y="0" width="68.0872464" height="68.2578395" rx="6.99640103"></rect>
                            <path d="M6.99640103,0 L61.0908454,0 C64.954851,-7.57365907e-15 68.0872464,3.13239544 68.0872464,6.99640103 L68.0872464,16.0811438 L68.0872464,16.0811438 L0,16.0811438 L0,6.99640103 C4.14974212e-16,3.13239544 3.13239544,7.09806312e-16 6.99640103,0 Z" id="矩形-copy-10" fill="#00539A"></path>
                            <rect id="矩形-copy-11" fill="#FFFFFF" x="8.72913416" y="23.1901634" width="50.1925214" height="10.9387563" rx="2.62365039"></rect>
                            <rect id="矩形-copy-12" fill="#FFFFFF" x="8.72913416" y="41.3123904" width="50.1925214" height="19.2522111" rx="2.62365039"></rect>
                        </g>
                    </g>
                </g>
            </g>
        </g>
    </g>
</svg>